<?xml version="1.0" standalone="no"?>
<!DOCTYPE svg PUBLIC "-//W3C//DTD SVG 1.1//EN" "http://www.w3.org/Graphics/SVG/1.1/DTD/svg11.dtd">
<svg xmlns="http://www.w3.org/2000/svg" xmlns:xlink="http://www.w3.org/1999/xlink" width="1024" height="1024" viewBox="0 0 1024 1024" version="1.1">
    <desc>SuperCollider Cube SVG - Nathan Ho 2015</desc>
    <defs>
        <linearGradient id="ebase" gradientUnits="userSpaceOnUse">
            <stop stop-color="#F7FBFE" offset="0%" />
            <stop stop-color="#C9668C" offset="100%" />
        </linearGradient>
        <linearGradient id="e0" xlink:href="#ebase" x1="0%" y1="0%" x2="100%" y2="100%"></linearGradient>

        <linearGradient id="wbase" gradientUnits="userSpaceOnUse">
            <stop stop-color="#F7FBFE" offset="0%" />
            <stop stop-color="#C9668C" offset="100%" />
        </linearGradient>
        <linearGradient id="w0" xlink:href="#wbase" x1="100%" y1="0%" x2="0%" y2="100%"></linearGradient>

        <linearGradient id="nbase" gradientUnits="userSpaceOnUse">
            <stop stop-color="#C9668C" offset="0%" />
            <stop stop-color="#F7FBFE" offset="100%" />
        </linearGradient>
        <linearGradient id="n0" xlink:href="#nbase" x1="0%" y1="0%" x2="100%" y2="100%"></linearGradient>

        <g id="wface">
            <rect x="0" y="0" width="1024" height="1024" fill="url(#w0)"/>
            <rect x="80" y="80" width="864" height="864" fill="#214368"/>
            <rect x="160" y="160" width="704" height="704" fill="url(#w0)"/>
            <rect x="240" y="240" width="544" height="544" fill="#214368"/>
        </g>
        <g id="eface">
            <rect x="0" y="0" width="1024" height="1024" fill="url(#e0)"/>
            <rect x="80" y="80" width="864" height="864" fill="#214368"/>
            <rect x="160" y="160" width="704" height="704" fill="url(#e0)"/>
            <rect x="240" y="240" width="544" height="544" fill="#214368"/>
        </g>
        <g id="nface">
            <rect x="0" y="0" width="1024" height="1024" fill="url(#n0)"/>
            <rect x="100" y="100" width="824" height="824" fill="#214368"/>
            <rect x="200" y="200" width="624" height="624" fill="url(#n0)"/>
            <rect x="300" y="300" width="424" height="424" fill="#214368"/>
        </g>

        <filter id="shadow">
            <feGaussianBlur in="SourceAlpha" stdDeviation="12" />
        </filter>
    </defs>
<!--
Julia code:

B = [[0,0,1] [1024,0,1] [0,1024,1]]
o = [48,145]
s = [0,595]
e = [506,-119]
se = [424,207]
points = hcat(o+e,o,o+se+e,o+se,o+s,o+s+se+e,o+s+se)
rects = Vector[[4,3,7],[2,4,5],[1,3,2]]
for r = rects
    p = map(c -> vcat(points[:,c], [1]), r)
    p = hcat(p...)
    A = (B' \ p')'
    println(join(reshape(A[1:2,:], 6), " "))
end
-->
<g transform="translate(0,650)" filter="url(#shadow)" opacity="0.5">
    <use xlink:href="#nface" transform="matrix(0.4140625 0.2021484375 -0.494140625 0.1162109375 554.0 26.0)" />
</g>

<!-- <use xlink:href="#eface" transform="matrix(0.494140625 -0.1162109375 0.0 0.5810546875 424 326)" /> -->
<!-- <use xlink:href="#eface" transform="matrix(0.494140625 -0.1162109375 0.0 0.5810546875 422 326)" /> -->
<!-- <use xlink:href="#wface" transform="matrix(0.4140625 0.2021484375 0.0 0.5810546875 0 119)" /> -->
<!-- <use xlink:href="#nface" transform="matrix(0.4140625 0.2021484375 -0.494140625 0.1162109375 506 0)" /> -->
<!-- <use xlink:href="#nface" transform="matrix(0.4140625 0.2021484375 -0.494140625 0.1162109375 505 0)" /> -->
<use xlink:href="#eface" transform="matrix(0.494140625 -0.1162109375 0.0 0.5810546875 472.0 352.0)" />
<use xlink:href="#wface" transform="matrix(0.4140625 0.2021484375 0.0 0.5810546875 48.0 145.0)" />
<use xlink:href="#nface" transform="matrix(0.4140625 0.2021484375 -0.494140625 0.1162109375 554.0 26.0)" />

</svg>
